<svg xmlns="http://www.w3.org/2000/svg" width="66.715" height="65.606" viewBox="0 0 66.715 65.606">
  <g id="Group_96" data-name="Group 96" transform="translate(-92.371 -84.219)">
    <g id="Group_54" data-name="Group 54" transform="translate(92.824 84.219)">
      <path id="Path_25" data-name="Path 25" d="M444.067,491.119a.366.366,0,0,1,.112-.407l4.214-4.179a.452.452,0,0,1-.012-.08,2.414,2.414,0,0,0-.942-1.808,1.789,1.789,0,0,1-.381,1.685,1.629,1.629,0,0,1-.557.431.38.38,0,0,1-.16.036.389.389,0,0,1-.325-.178.374.374,0,0,1-.024-.362,1.463,1.463,0,0,0,.008-1.172,1.851,1.851,0,0,0-.392-.659c-.6.83-2.612,4.17-2.488,10.932H445v-4.009h-.545A.4.4,0,0,1,444.067,491.119Z" transform="translate(-414.647 -451.424)" fill="#006837"/>
      <path id="Path_26" data-name="Path 26" d="M500.865,581l0,2.969h2.369l0-2.969Z" transform="translate(-467.63 -540.037)" fill="#006837"/>
      <path id="Path_27" data-name="Path 27" d="M129.847,84.219,97.866,139.612h17.771l6.536-11.461h1.138a21.579,21.579,0,0,1,2.278-8.74,17.479,17.479,0,0,1,2.007-3.155,1.577,1.577,0,0,0-.725-.265,1.474,1.474,0,0,0-1.139.28.378.378,0,0,1-.231.084.388.388,0,0,1-.3-.142.38.38,0,0,1-.077-.32,1.619,1.619,0,0,1,.291-.634,1.8,1.8,0,0,1,1.557-.751,2.494,2.494,0,0,0-1.533-.553,2.367,2.367,0,0,0-.475.049.381.381,0,0,1-.08.008.38.38,0,0,1-.3-.606,2.4,2.4,0,0,1,1.13-.844,2.871,2.871,0,0,1,1.017-.188,2.647,2.647,0,0,1,.863.141,2.276,2.276,0,0,0-.536-.305.419.419,0,0,1,.021-.782,2.387,2.387,0,0,1,1.172-.1,2.654,2.654,0,0,1,2.178,1.765,2.584,2.584,0,0,1,.124.7,2.576,2.576,0,0,1,2.917,1.686,2.368,2.368,0,0,1,.168,1.139.424.424,0,0,1-.427.382.418.418,0,0,1-.346-.179,2.3,2.3,0,0,0-.41-.437,2.784,2.784,0,0,1,.381,1.846,2.586,2.586,0,0,1-.229.774c.016.012,0,.026.015.04l1.537,1.559v-.2a.8.8,0,0,1,.652-.738h.909c.32,0,.583.418.583.738v2.248l.866.863a.356.356,0,0,1,.1.414.376.376,0,0,1-.367.22h-.6v4.009h1.219l6.536,11.461h17.771Z" transform="translate(-97.866 -84.219)" fill="#006837"/>
    </g>
    <g id="Group_55" data-name="Group 55" transform="translate(92.371 141.83)">
      <path id="Path_28" data-name="Path 28" d="M97.927,789.86h-2.9l-.4.907H92.371l3.612-7.871h.979l3.617,7.871H98.317Zm-.656-1.51-.8-1.842-.8,1.842Z" transform="translate(-92.371 -782.896)" fill="#006837"/>
      <path id="Path_29" data-name="Path 29" d="M196.791,784.066l-3.583,7.856h-.936l-3.569-7.856h2.233l1.794,4.21,1.8-4.21Z" transform="translate(-180.76 -783.969)" fill="#006837"/>
      <path id="Path_30" data-name="Path 30" d="M313.928,784.066h2.064v7.774h-2.064Z" transform="translate(-295.659 -783.969)" fill="#006837"/>
      <path id="Path_31" data-name="Path 31" d="M367.332,791.43l1.042-1.7a1.194,1.194,0,0,0,.849.294h.034a1.248,1.248,0,0,0,1.278-1.182l-.039-4.775,2.069,0,.034,4.779a3.194,3.194,0,0,1-3.332,3.115h-.058A3.254,3.254,0,0,1,367.332,791.43Z" transform="translate(-344.66 -783.969)" fill="#006837"/>
      <path id="Path_32" data-name="Path 32" d="M454.365,789.86h-2.9l-.4.907h-2.257l3.612-7.871h.979l3.617,7.871h-2.262Zm-.656-1.51-.8-1.842-.8,1.842Z" transform="translate(-419.418 -782.896)" fill="#006837"/>
      <path id="Path_33" data-name="Path 33" d="M563.863,786H562v5.845h-2.069V786h-1.866v-1.929h5.8Z" transform="translate(-519.666 -783.969)" fill="#006837"/>
      <path id="Path_34" data-name="Path 34" d="M660.891,791.84l-2.078-3.376v3.376h-2.064l-.01-7.774h2.952a2.667,2.667,0,0,1,2.879,2.527,2.343,2.343,0,0,1-1.345,2.127l2.083,3.12Zm-2.088-4.36.844,0a.783.783,0,1,0,0-1.562H658.8Z" transform="translate(-610.203 -783.969)" fill="#006837"/>
      <path id="Path_35" data-name="Path 35" d="M763.131,784.066H765.2v7.774h-2.064Z" transform="translate(-707.822 -783.969)" fill="#006837"/>
      <path id="Path_36" data-name="Path 36" d="M826.294,791.84l-1.968-2.956v2.956h-2.059v-7.774h2.059v2.9l1.8-2.9H828.5l-2.382,3.791,2.677,3.984Z" transform="translate(-762.082 -783.969)" fill="#006837"/>
    </g>
  </g>
</svg>
