<svg xmlns="http://www.w3.org/2000/svg" width="109.186" height="107.373" viewBox="0 0 109.186 107.373">
  <g id="Group_56" data-name="Group 56" transform="translate(-92.371 -84.219)">
    <g id="Group_54" data-name="Group 54" transform="translate(93.113 84.219)">
      <path id="Path_25" data-name="Path 25" d="M444.673,495.382a.6.6,0,0,1,.183-.667l6.9-6.84a.723.723,0,0,1-.019-.131,3.95,3.95,0,0,0-1.542-2.96,2.928,2.928,0,0,1-.624,2.758,2.666,2.666,0,0,1-.911.7.623.623,0,0,1-.263.058.637.637,0,0,1-.531-.292.613.613,0,0,1-.039-.592,2.4,2.4,0,0,0,.013-1.919,3.03,3.03,0,0,0-.641-1.079c-.979,1.358-4.275,6.825-4.072,17.891H446.2v-6.561l-.892,0A.658.658,0,0,1,444.673,495.382Z" transform="translate(-396.524 -430.416)" fill="#fff"/>
      <path id="Path_26" data-name="Path 26" d="M500.868,581l-.008,4.858h3.878L504.73,581Z" transform="translate(-446.476 -513.959)" fill="#fff"/>
      <path id="Path_27" data-name="Path 27" d="M150.207,84.219,97.866,174.876H126.95l10.7-18.758h1.863a35.316,35.316,0,0,1,3.729-14.3,28.609,28.609,0,0,1,3.284-5.163,2.58,2.58,0,0,0-1.186-.433,2.412,2.412,0,0,0-1.864.458.619.619,0,0,1-.379.137.636.636,0,0,1-.491-.233.621.621,0,0,1-.126-.523,2.65,2.65,0,0,1,.477-1.038,2.94,2.94,0,0,1,2.549-1.229,4.082,4.082,0,0,0-2.51-.906,3.873,3.873,0,0,0-.777.08.621.621,0,0,1-.627-.978,3.929,3.929,0,0,1,1.849-1.381,4.7,4.7,0,0,1,1.665-.307,4.331,4.331,0,0,1,1.413.231,3.723,3.723,0,0,0-.877-.5.685.685,0,0,1,.034-1.28,3.907,3.907,0,0,1,1.918-.167,4.343,4.343,0,0,1,3.565,2.889,4.228,4.228,0,0,1,.2,1.139,4.215,4.215,0,0,1,4.775,2.76,3.875,3.875,0,0,1,.276,1.864.694.694,0,0,1-.7.625.684.684,0,0,1-.567-.293,3.761,3.761,0,0,0-.67-.715,4.555,4.555,0,0,1,.623,3.022,4.232,4.232,0,0,1-.375,1.267c.026.02,0,.043.025.066l2.515,2.551v-.331a1.31,1.31,0,0,1,1.067-1.207h1.488c.523,0,.954.685.954,1.207V147.1l1.418,1.413a.583.583,0,0,1,.163.678.616.616,0,0,1-.6.36l-.981,0v6.561h1.995l10.7,18.758h29.084Z" transform="translate(-97.866 -84.219)" fill="#fff"/>
    </g>
    <g id="Group_55" data-name="Group 55" transform="translate(92.371 178.505)">
      <path id="Path_28" data-name="Path 28" d="M101.464,794.293H96.712l-.647,1.484H92.371L98.283,782.9h1.6l5.92,12.881h-3.7Zm-1.074-2.47-1.3-3.015-1.31,3.015Z" transform="translate(-92.371 -782.896)" fill="#fff"/>
      <path id="Path_29" data-name="Path 29" d="M201.939,784.066l-5.864,12.858h-1.531L188.7,784.066h3.654l2.936,6.891,2.944-6.891Z" transform="translate(-175.703 -783.908)" fill="#fff"/>
      <path id="Path_30" data-name="Path 30" d="M313.928,784.066h3.378v12.723h-3.378Z" transform="translate(-284.029 -783.908)" fill="#fff"/>
      <path id="Path_31" data-name="Path 31" d="M367.332,796.118l1.7-2.786a1.955,1.955,0,0,0,1.389.482h.055a2.042,2.042,0,0,0,2.092-1.934l-.063-7.814,3.386.008.055,7.822a5.227,5.227,0,0,1-5.454,5.1H370.4A5.326,5.326,0,0,1,367.332,796.118Z" transform="translate(-330.226 -783.908)" fill="#fff"/>
      <path id="Path_32" data-name="Path 32" d="M457.9,794.293H453.15l-.647,1.484h-3.694l5.912-12.881h1.6l5.92,12.881h-3.7Zm-1.074-2.47-1.3-3.015-1.31,3.015Z" transform="translate(-400.708 -782.896)" fill="#fff"/>
      <path id="Path_33" data-name="Path 33" d="M567.553,787.223h-3.047v9.566h-3.386v-9.566h-3.055v-3.157h9.487Z" transform="translate(-495.221 -783.908)" fill="#fff"/>
      <path id="Path_34" data-name="Path 34" d="M663.535,796.789l-3.4-5.525v5.525h-3.378l-.016-12.723h4.83c2.747,0,4.712,1.855,4.712,4.136a3.834,3.834,0,0,1-2.2,3.481l3.41,5.107Zm-3.418-7.135,1.381.008a1.282,1.282,0,1,0,0-2.557h-1.381Z" transform="translate(-580.578 -783.908)" fill="#fff"/>
      <path id="Path_35" data-name="Path 35" d="M763.131,784.066h3.378v12.723h-3.378Z" transform="translate(-672.612 -783.908)" fill="#fff"/>
      <path id="Path_36" data-name="Path 36" d="M828.858,796.789l-3.22-4.838v4.838h-3.37V784.066h3.37v4.744l2.952-4.744h3.883l-3.9,6.2,4.381,6.519Z" transform="translate(-723.768 -783.908)" fill="#fff"/>
    </g>
  </g>
</svg>
