<svg xmlns="http://www.w3.org/2000/svg" width="127.474" height="96.545" viewBox="0 0 127.474 96.545">
  <g id="Group_74" data-name="Group 74" transform="translate(-1070.057 -388.776)">
    <path id="Path_45" data-name="Path 45" d="M1158.562,398.082c13.171,2.934,21.827,10.493,25.157,23.683a36.542,36.542,0,0,1,.81,8.962,49.838,49.838,0,0,0,1.85,14.109c1.21,4.11,3.859,7.148,7.006,9.857a9.086,9.086,0,0,1-5.392,16.1q-34.128.071-68.255.011a8.27,8.27,0,0,1-7.892-5.215,8.673,8.673,0,0,1,1.275-9.629,5.372,5.372,0,0,1,.857-.913c7.574-5.677,8.967-13.9,9.223-22.547.1-3.508-.108-7.047.75-10.479,3.176-12.7,11.228-20.513,23.922-23.575.786-.189,1.651.095,1.07-1.392-1.29-3.3-.608-5.66,1.759-7.326a5.839,5.839,0,0,1,6.776.274c2.249,1.864,2.6,4.371,1.088,7.707A1.3,1.3,0,0,0,1158.562,398.082Z" transform="translate(-20.357 0)" fill="#fff"/>
    <path id="Path_46" data-name="Path 46" d="M1311.961,434.625a33.193,33.193,0,0,1-7.73,20.641c-.447.549-1.057,2.1-1.963.66-.7-1.116-3.544-1.242-1.72-3.728,8.993-12.255,8.939-25.343-.105-37.167-1.751-2.289.957-2.488,1.6-3.594.8-1.371,1.487-.2,2.036.46C1309.321,418.161,1311.86,425.417,1311.961,434.625Z" transform="translate(-114.43 -10.967)" fill="#5af5c6"/>
    <path id="Path_47" data-name="Path 47" d="M1070.059,433.386a33.046,33.046,0,0,1,7.838-21.394c.7-.844,1.474-1.664,2.266-.3.6,1.042,3.09,1.224,1.4,3.431-8.952,11.661-9.062,24.927-.466,36.759.4.544,1.471,1.043.925,1.8a10.016,10.016,0,0,1-2.858,2.754c-.62.371-1.15-.728-1.58-1.272A33.745,33.745,0,0,1,1070.059,433.386Z" transform="translate(0 -11.05)" fill="#5af5c6"/>
    <path id="Path_48" data-name="Path 48" d="M1184.912,561.3c3.427,0,6.856.041,10.282-.021,1.31-.024,1.53.371,1.193,1.608-1.256,4.624-6.361,8.334-11.625,8.333s-10.334-3.7-11.6-8.352c-.35-1.28-.046-1.607,1.217-1.587C1177.889,561.333,1181.4,561.3,1184.912,561.3Z" transform="translate(-51.273 -85.895)" fill="#fff"/>
    <path id="Path_49" data-name="Path 49" d="M1102.488,427.9c.879,1.151,1.591,2.179,2.406,3.12.626.723.155,1.2-.2,1.755q-5.937,9.251-.022,18.517c1.475,2.319-1.056,2.774-1.97,3.8-1.077,1.21-1.48-.436-1.9-1a20.819,20.819,0,0,1,.3-24.492C1101.4,429.223,1101.71,428.856,1102.488,427.9Z" transform="translate(-13.401 -19.483)" fill="#5af5c6"/>
    <path id="Path_50" data-name="Path 50" d="M1289.038,442.815a20.168,20.168,0,0,1-3.928,11.918c-.424.551-.8,2.233-1.879.925-.866-1.055-3.493-1.463-1.922-3.787a16.142,16.142,0,0,0,2.272-13.6,17.607,17.607,0,0,0-2.312-4.958c-1.455-2.327,1.116-2.734,2.037-3.726,1.033-1.113,1.425.481,1.853,1.072A20.867,20.867,0,0,1,1289.038,442.815Z" transform="translate(-104.948 -20.13)" fill="#5af5c6"/>
  </g>
</svg>
