<svg xmlns="http://www.w3.org/2000/svg" width="32.176" height="32.176" viewBox="0 0 32.176 32.176">
  <path id="Path_42" data-name="Path 42" d="M1364.088,395a16.088,16.088,0,1,0,16.088,16.088A16.088,16.088,0,0,0,1364.088,395Zm8.69,22.132a.683.683,0,0,1-.732.388c-1.549,0-3.1.013-4.645-.011-.429-.006-.592.088-.659.556a2.678,2.678,0,0,1-5.31-.032c-.063-.444-.219-.542-.629-.525-.753.032-1.508.009-2.263.009-.814,0-1.628-.006-2.442,0a.658.658,0,0,1-.689-.365.635.635,0,0,1,.2-.8c2.13-1.693,2.7-3.935,2.584-6.566-.133-2.963,1.266-4.89,4.03-6.008a.45.45,0,0,0,.329-.468,1.528,1.528,0,0,1,1.525-1.509,1.511,1.511,0,0,1,1.537,1.49.481.481,0,0,0,.372.5,5.9,5.9,0,0,1,4.027,5.855,23.5,23.5,0,0,0,.066,2.676,5.306,5.306,0,0,0,1.714,3.254c.259.246.5.507.759.757A.673.673,0,0,1,1372.777,417.132Z" transform="translate(-1348 -395)" fill="#5af5c6"/>
</svg>
