<svg xmlns="http://www.w3.org/2000/svg" width="32.176" height="32.176" viewBox="0 0 32.176 32.176">
  <path id="Path_43" data-name="Path 43" d="M1677.088,395a16.088,16.088,0,1,0,16.088,16.088A16.088,16.088,0,0,0,1677.088,395Zm-.371,25.9a2.179,2.179,0,0,1-.084-4.356,2.22,2.22,0,0,1,2.222,2.141A2.2,2.2,0,0,1,1676.717,420.9Zm5.479-11.174c-.711.742-1.641,1.271-2.384,1.987a7.706,7.706,0,0,0-1.484,1.883c-.558,1.054-1.256,1.483-2.318,1.16a1.668,1.668,0,0,1-1.029-2.182,8.557,8.557,0,0,1,1.625-2.43c.559-.636,1.345-1.066,1.958-1.663,1.194-1.164,1.259-2.691.215-3.577a2.966,2.966,0,0,0-4.1.567c-.256.384-.417.829-.646,1.232a1.828,1.828,0,0,1-2.417.985c-.864-.343-1.22-1.068-.9-2.237.637-2.346,2.447-3.407,4.631-3.974a11.758,11.758,0,0,1,1.594-.2,7.234,7.234,0,0,1,4.109,1.091,5.124,5.124,0,0,1,2.216,2.4A4.652,4.652,0,0,1,1682.2,409.726Z" transform="translate(-1661 -395)" fill="#fff"/>
</svg>
