<svg xmlns="http://www.w3.org/2000/svg" width="32.583" height="32.583" viewBox="0 0 32.583 32.583">
  <path id="Path_44" data-name="Path 44" d="M1297.23,622.542a16.291,16.291,0,1,0,16.291,16.291A16.291,16.291,0,0,0,1297.23,622.542Zm6.914,23.665c0,.073-.007.146-.012.235h-4.988v-5.808h-3.8v5.8h-5.025v-1.539c0-2.658,0-5.316.007-7.975a.711.711,0,0,1,.163-.465q3.3-3.227,6.615-6.434c.035-.034.077-.061.133-.106.079.07.155.132.226.2q3.229,3.134,6.452,6.275a.757.757,0,0,1,.225.477C1304.149,639.979,1304.145,643.093,1304.145,646.207Z" transform="translate(-1280.939 -622.542)" fill="#fff"/>
</svg>
