<svg xmlns="http://www.w3.org/2000/svg" width="32.176" height="32.176" viewBox="0 0 32.176 32.176">
  <path id="Path_41" data-name="Path 41" d="M1506.088,581a16.088,16.088,0,1,0,16.088,16.088A16.088,16.088,0,0,0,1506.088,581Zm5.733,23.674a7.86,7.86,0,0,1-3.627,1.157,15.1,15.1,0,0,1-6.193-.425c-2.292-.7-2.861-1.727-2.144-4.009a6.536,6.536,0,0,1,5.617-4.692c-2.729-.981-4.006-2.761-3.626-5.01a4.33,4.33,0,0,1,8.548-.054c.412,2.269-.85,4.052-3.637,5.075a6.819,6.819,0,0,1,3.041,1.118,6.481,6.481,0,0,1,2.869,5.1A1.805,1.805,0,0,1,1511.821,604.674Z" transform="translate(-1490 -581)" fill="#fff"/>
</svg>
