<svg xmlns="http://www.w3.org/2000/svg" width="44" height="44" viewBox="0 0 44 44">
  <g id="Group_11" data-name="Group 11" transform="translate(0 0.385)">
    <g id="Group_9" data-name="Group 9" transform="translate(0 0)">
      <circle id="Ellipse_1" data-name="Ellipse 1" cx="22" cy="22" r="22" transform="translate(0 -0.385)" fill="#1fa67d"/>
    </g>
    <g id="Group_10" data-name="Group 10" transform="translate(9.433 9.749)">
      <path id="Path_5" data-name="Path 5" d="M885.439,318.628q-4.7,0-9.394,0c-.7,0-.8-.115-.8-.815,0-3.045.005-6.091-.008-9.136a.822.822,0,0,1,.51-.83q4.641-2.4,9.266-4.829a.832.832,0,0,1,.858-.009q4.66,2.442,9.332,4.859a.745.745,0,0,1,.457.75c-.009,3.082,0,6.165,0,9.247,0,.626-.129.762-.746.763Q890.173,318.63,885.439,318.628Zm-.029-1.046c2.936,0,5.871-.006,8.807.008.329,0,.4-.091.4-.409q-.018-4.072,0-8.144a.412.412,0,0,0-.253-.428q-4.312-2.233-8.617-4.481a.568.568,0,0,0-.6,0q-4.285,2.248-8.584,4.469a.451.451,0,0,0-.287.475q.013,4.055,0,8.109c0,.318.071.411.4.41C879.587,317.576,882.5,317.582,885.41,317.582Z" transform="translate(-872.877 -297.741)" fill="#fff"/>
      <path id="Path_6" data-name="Path 6" d="M868.272,240.155c.01.438-.418.663-.843.423-.852-.481-1.7-.975-2.542-1.464q-4.431-2.558-8.858-5.122a.533.533,0,0,0-.624-.009q-5.615,3.258-11.24,6.5c-.074.043-.146.091-.222.128a.52.52,0,0,1-.731-.192.509.509,0,0,1,.219-.72c.63-.376,1.268-.738,1.9-1.1q4.987-2.878,9.973-5.758a.708.708,0,0,1,.787-.01q5.873,3.4,11.752,6.784C868.065,239.736,868.264,239.868,868.272,240.155Z" transform="translate(-843.138 -232.71)" fill="#fff"/>
    </g>
  </g>
</svg>
